# xmcd CD database file
#
# Track frame offsets:
#	150
#	29074
#	51159
#	72473
#	101828
#	122465
#	136197
#	158249
#	179046
#	196808
#	211392
#	237344
#
# Disc length: 3364 seconds
#
# Revision: 5
# Processed by: cddbd v1.5.2PL0 Copyright (c) Steve Scherf et al.
# Submitted via: CDex 1.51
#
DISCID=b30d220c
DTITLE=Allison, Luther - Bad Love
DYEAR=1994
DGENRE=Blues
TTITLE0=Bad love
TTITLE1=I wanna know
TTITLE2=She was born that way
TTITLE3=Put your money where your mouth is
TTITLE4=Nobody but you
TTITLE5=You've been teasin' me
TTITLE6=Middle of the road
TTITLE7=Love string
TTITLE8=Gave it all
TTITLE9=Soul fixin' man
TTITLE10=Freedom
TTITLE11=Things that I used to do
EXTD=YEAR: 1994
EXTT0=
EXTT1=
EXTT2=
EXTT3=
EXTT4=
EXTT5=
EXTT6=
EXTT7=
EXTT8=
EXTT9=
EXTT10=
EXTT11=
PLAYORDER=
